<mxfile host="app.diagrams.net" modified="2023-05-19T06:56:25.493Z" agent="Mozilla/5.0 (Macintosh; Intel Mac OS X 10_15_7) AppleWebKit/537.36 (KHTML, like Gecko) Chrome/113.0.0.0 Safari/537.36" version="21.1.5" etag="xiiMv_3rBTO9NdOVcDDR" type="github">
  <diagram name="Page-1" id="kWiYVOfBMtaWOmV6DlcM">
    <mxGraphModel>
      <root>
        <mxCell id="0" />
        <mxCell id="1" parent="0" />
      </root>
    </mxGraphModel>
  </diagram>
</mxfile>
